<svg xmlns="http://www.w3.org/2000/svg" width="549" height="396" viewBox="0 0 549 396">
  <g id="componentDemoImage" transform="translate(-377 -115)">
    <g id="Group_10" data-name="Group 10">
      <g id="Group_4" data-name="Group 4">
        <rect id="Rectangle_17" data-name="Rectangle 17" width="526" height="321" rx="11" transform="translate(377 160)" fill="#d8d8d8"/>
        <rect id="Rectangle_18" data-name="Rectangle 18" width="526" height="49" rx="4" transform="translate(377 160)" fill="silver"/>
      </g>
      <g id="Group_5" data-name="Group 5">
        <rect id="Rectangle_19" data-name="Rectangle 19" width="129" height="7" rx="3" transform="translate(402 232)" fill="#b8b8b8"/>
        <rect id="Rectangle_20" data-name="Rectangle 20" width="181" height="13" rx="3" transform="translate(402 244)" fill="#b8b8b8"/>
        <rect id="Rectangle_21" data-name="Rectangle 21" width="98" height="13" rx="3" transform="translate(402 262)" fill="#b8b8b8"/>
      </g>
      <rect id="Rectangle_23" data-name="Rectangle 23" width="100" height="63" rx="5" transform="translate(590.289 301)" fill="#c4c4c4"/>
      <rect id="Rectangle_24" data-name="Rectangle 24" width="100" height="63" rx="5" transform="translate(770.577 301)" fill="#c4c4c4"/>
      <rect id="Rectangle_25" data-name="Rectangle 25" width="100" height="63" rx="5" transform="translate(410 389)" fill="#c4c4c4"/>
      <rect id="Rectangle_26" data-name="Rectangle 26" width="100" height="63" rx="5" transform="translate(590.289 389)" fill="#c4c4c4"/>
      <rect id="Rectangle_27" data-name="Rectangle 27" width="100" height="63" rx="5" transform="translate(770.577 389)" fill="#c4c4c4"/>
      <g id="Group_9" data-name="Group 9">
        <g id="Group_6" data-name="Group 6">
          <rect id="Rectangle_22" data-name="Rectangle 22" width="100" height="63" rx="5" transform="translate(410 301)" fill="#fff"/>
          <rect id="Rectangle_28" data-name="Rectangle 28" width="100" height="14" rx="1" transform="translate(410 301)" fill="#4504c5"/>
          <rect id="Rectangle_29" data-name="Rectangle 29" width="26" height="22" rx="1" transform="translate(415 320)" fill="#cecece"/>
          <rect id="Rectangle_30" data-name="Rectangle 30" width="17" height="39" rx="1" transform="translate(487.02 320)" fill="#cecece"/>
          <rect id="Rectangle_31" data-name="Rectangle 31" width="26" height="22" rx="1" transform="translate(451 320)" fill="#cecece"/>
          <rect id="Rectangle_32" data-name="Rectangle 32" width="26" height="4" rx="1" transform="translate(415 344)" fill="#cecece"/>
          <rect id="Rectangle_33" data-name="Rectangle 33" width="26" height="4" rx="1" transform="translate(415 350)" fill="#cecece"/>
          <rect id="Rectangle_34" data-name="Rectangle 34" width="26" height="4" rx="1" transform="translate(415 356)" fill="#cecece"/>
          <rect id="Rectangle_35" data-name="Rectangle 35" width="26" height="4" rx="1" transform="translate(451 344)" fill="#cecece"/>
          <rect id="Rectangle_36" data-name="Rectangle 36" width="26" height="4" rx="1" transform="translate(451 350)" fill="#cecece"/>
          <rect id="Rectangle_37" data-name="Rectangle 37" width="26" height="4" rx="1" transform="translate(451 356)" fill="#cecece"/>
        </g>
        <g id="Group_8" data-name="Group 8">
          <circle id="Ellipse_2" data-name="Ellipse 2" cx="16" cy="16" r="16" transform="translate(487 291)" fill="#0f3"/>
          <g id="Group_7" data-name="Group 7" transform="translate(3 -2)">
            <line id="Line_1" data-name="Line 1" x2="3" y2="4" transform="translate(494.5 309.5)" fill="none" stroke="#fff" stroke-linecap="round" stroke-width="1"/>
            <line id="Line_2" data-name="Line 2" x1="9" y2="8" transform="translate(497.5 305.5)" fill="none" stroke="#fff" stroke-linecap="round" stroke-width="1"/>
          </g>
        </g>
      </g>
    </g>
    <g id="Group_11" data-name="Group 11" opacity="0.85">
      <circle id="Ellipse_3" data-name="Ellipse 3" cx="45" cy="45" r="45" transform="translate(431 115)" fill="#ff7600"/>
      <text id="HTML" transform="translate(454 166)" fill="#fff" font-size="15" font-family="Montserrat-Bold, Montserrat" font-weight="700"><tspan x="0" y="0">HTML</tspan></text>
    </g>
    <g id="Group_12" data-name="Group 12" opacity="0.71">
      <circle id="Ellipse_4" data-name="Ellipse 4" cx="40" cy="40" r="40" transform="translate(846 241)" fill="#09f"/>
      <text id="CSS" transform="translate(871 287)" fill="#fff" font-size="15" font-family="Montserrat-Bold, Montserrat" font-weight="700"><tspan x="0" y="0">CSS</tspan></text>
    </g>
    <g id="Group_13" data-name="Group 13" opacity="0.81">
      <rect id="Rectangle_38" data-name="Rectangle 38" width="60" height="60" transform="translate(697 451)" fill="#f7ff00"/>
      <text id="JS" transform="translate(727 499)" font-size="19" font-family="Montserrat-Bold, Montserrat" font-weight="700"><tspan x="0" y="0">JS</tspan></text>
    </g>
  </g>
</svg>
