<svg xmlns="http://www.w3.org/2000/svg" width="496" height="380" viewBox="0 0 496 380">
  <defs>
    <style>
      .cls-1 {
        fill: #ececec;
      }

      .cls-2 {
        fill: #005d6c;
      }

      .cls-3 {
        fill: #52ffa3;
      }

      .cls-4 {
        fill: rgba(255,255,255,0.55);
      }

      .cls-5 {
        fill: #9b9b9b;
      }

      .cls-6 {
        fill: #529dff;
      }

      .cls-7 {
        fill: #a500eb;
      }

      .cls-8 {
        fill: #141414;
      }
    </style>
  </defs>
  <g id="demoComponentImage" transform="translate(-607 -130)">
    <circle id="Ellipse_1" data-name="Ellipse 1" class="cls-1" cx="190" cy="190" r="190" transform="translate(678 130)"/>
    <g id="Group_2" data-name="Group 2" transform="translate(364 42)">
      <rect id="Rectangle_1" data-name="Rectangle 1" class="cls-2" width="235" height="145" rx="6" transform="translate(243 175)"/>
      <rect id="Rectangle_2" data-name="Rectangle 2" class="cls-3" width="235" height="27" rx="3" transform="translate(243 170)"/>
      <rect id="Rectangle_3" data-name="Rectangle 3" class="cls-4" width="110" height="12" transform="translate(251 209)"/>
      <rect id="Rectangle_4" data-name="Rectangle 4" class="cls-4" width="141" height="12" transform="translate(251 226)"/>
      <rect id="Rectangle_5" data-name="Rectangle 5" class="cls-4" width="85" height="12" transform="translate(251 243)"/>
      <rect id="Rectangle_6" data-name="Rectangle 6" class="cls-4" width="55" height="36" rx="3" transform="translate(251 267)"/>
      <rect id="Rectangle_7" data-name="Rectangle 7" class="cls-4" width="31" height="36" rx="3" transform="translate(317 267)"/>
      <rect id="Rectangle_8" data-name="Rectangle 8" class="cls-4" width="98" height="36" rx="3" transform="translate(359 267)"/>
    </g>
    <g id="Group_1" data-name="Group 1" transform="translate(320 59)">
      <rect id="Rectangle_9" data-name="Rectangle 9" class="cls-5" width="235" height="145" rx="6" transform="translate(548 175)"/>
      <rect id="Rectangle_10" data-name="Rectangle 10" class="cls-6" width="235" height="27" rx="3" transform="translate(548 170)"/>
      <rect id="Rectangle_11" data-name="Rectangle 11" class="cls-4" width="110" height="12" transform="translate(556 209)"/>
      <rect id="Rectangle_12" data-name="Rectangle 12" class="cls-4" width="141" height="12" transform="translate(556 226)"/>
      <rect id="Rectangle_13" data-name="Rectangle 13" class="cls-4" width="85" height="12" transform="translate(556 243)"/>
      <rect id="Rectangle_14" data-name="Rectangle 14" class="cls-4" width="55" height="36" rx="3" transform="translate(556 267)"/>
      <rect id="Rectangle_15" data-name="Rectangle 15" class="cls-4" width="31" height="36" rx="3" transform="translate(622 267)"/>
      <rect id="Rectangle_16" data-name="Rectangle 16" class="cls-4" width="98" height="36" rx="3" transform="translate(664 267)"/>
    </g>
    <g id="Group_3" data-name="Group 3" transform="translate(153 109)">
      <rect id="Rectangle_9-2" data-name="Rectangle 9" class="cls-7" width="235" height="145" rx="6" transform="translate(548 175)"/>
      <rect id="Rectangle_10-2" data-name="Rectangle 10" class="cls-8" width="235" height="27" rx="3" transform="translate(548 170)"/>
      <rect id="Rectangle_11-2" data-name="Rectangle 11" class="cls-4" width="110" height="12" transform="translate(556 209)"/>
      <rect id="Rectangle_12-2" data-name="Rectangle 12" class="cls-4" width="141" height="12" transform="translate(556 226)"/>
      <rect id="Rectangle_13-2" data-name="Rectangle 13" class="cls-4" width="85" height="12" transform="translate(556 243)"/>
      <rect id="Rectangle_14-2" data-name="Rectangle 14" class="cls-4" width="55" height="36" rx="3" transform="translate(556 267)"/>
      <rect id="Rectangle_15-2" data-name="Rectangle 15" class="cls-4" width="31" height="36" rx="3" transform="translate(622 267)"/>
      <rect id="Rectangle_16-2" data-name="Rectangle 16" class="cls-4" width="98" height="36" rx="3" transform="translate(664 267)"/>
    </g>
  </g>
</svg>
