<svg xmlns="http://www.w3.org/2000/svg" width="188" height="45" viewBox="0 0 188 45"><g id="mainDownloadButton" transform="translate(-876.5 -572)"><rect id="Rectangle_2" width="188" height="45" fill="#005fff" data-name="Rectangle 2" rx="22.5" transform="translate(876.5 572)"/><text id="download" fill="#fff" font-family="Montserrat-Bold, Montserrat" font-size="20" font-weight="700" transform="translate(906.5 602)"><tspan x="0" y="0">download</tspan></text><g id="Group_3" data-name="Group 3" transform="translate(-18 3)"><g id="Group_2" data-name="Group 2"><g id="Rectangle_3" fill="#fff" stroke="#fff" stroke-width="1" data-name="Rectangle 3" transform="translate(1044 581)"><rect width="2" height="12" stroke="none" rx=".4"/><rect width="1" height="11" x=".5" y=".5" fill="none" rx=".1"/></g><path id="Polygon_1" fill="#fff" d="M3.826.3a.2.2,0,0,1,.347,0L7.829,6.7a.2.2,0,0,1-.174.3H.345a.2.2,0,0,1-.174-.3Z" data-name="Polygon 1" transform="translate(1049 598) rotate(180)"/></g><g id="Rectangle_4" fill="#fff" stroke="#fff" stroke-width="1" data-name="Rectangle 4" transform="translate(1051 599) rotate(90)"><rect width="2" height="12" stroke="none" rx=".4"/><rect width="1" height="11" x=".5" y=".5" fill="none" rx=".1"/></g></g></g></svg>