<svg xmlns="http://www.w3.org/2000/svg" width="374.487" height="512" viewBox="0 0 374.487 512"><g id="demoComponent03" transform="translate(-1305.513 -892)"><g id="demoComponent03-2" data-name="demoComponent03"><rect id="Rectangle_10" width="374.487" height="335.364" fill="#16485a" data-name="Rectangle 10" transform="translate(1305.513 978)"/><rect id="Rectangle_11" width="374.487" height="60" fill="#00e7a2" data-name="Rectangle 11" transform="translate(1305.513 978)"/><path id="Rectangle_22" fill="#1d586d" d="M10,0H202a0,0,0,0,1,0,0V128a0,0,0,0,1,0,0H10A10,10,0,0,1,0,118V10A10,10,0,0,1,10,0Z" data-name="Rectangle 22" transform="translate(1478 1106)"/><rect id="Rectangle_23" width="324" height="17" fill="#1d586d" data-name="Rectangle 23" rx="8" transform="translate(1331 1065)"/><rect id="Rectangle_24" width="324" height="17" fill="#1d586d" data-name="Rectangle 24" rx="8" transform="translate(1331 1258)"/><rect id="Rectangle_25" width="111" height="17" fill="#1d586d" data-name="Rectangle 25" rx="8" transform="translate(1331 1109)"/><rect id="Rectangle_26" width="111" height="17" fill="#1d586d" data-name="Rectangle 26" rx="8" transform="translate(1331 1138)"/><rect id="Rectangle_27" width="111" height="17" fill="#1d586d" data-name="Rectangle 27" rx="8" transform="translate(1331 1167)"/><rect id="Rectangle_28" width="111" height="45" fill="#1d586d" data-name="Rectangle 28" rx="8" transform="translate(1331 1196)"/></g><text id="Use_that_code_snippet_for_your_web-components" data-name="Use that code snippet for your web-components" font-family="OpenSans-SemiBold, Open Sans" font-size="28" font-weight="600" transform="translate(1493 1358)"><tspan x="-147.089" y="0">Use that code snippet</tspan><tspan x="-174.952" y="38">for your web-components</tspan></text><text id="Step_03" fill="#292929" data-name="Step 03" font-family="Montserrat-Bold, Montserrat" font-size="37" font-weight="700" transform="translate(1420 928)"><tspan x="0" y="0">Step 03</tspan></text></g></svg>